STARTFONT 2.1
FONT -MIT-5X7 KST-Medium-R-Normal--12-4-200-200-P-6-ISO8859-1
SIZE 4 200 200
FONTBOUNDINGBOX 6 12 0 -4
STARTPROPERTIES 17
ADD_STYLE_NAME ""
AVERAGE_WIDTH 6
CHARSET_ENCODING "1"
CHARSET_REGISTRY "ISO8859"
DEFAULT_CHAR 0
FAMILY "5X7 KST"
FONT_ASCENT 8
FONT_DESCENT 4
FOUNDRY "MIT"
PIXEL_SIZE 12
POINT_SIZE 4
RESOLUTION_X 200
RESOLUTION_Y 200
SETWIDTH_NAME "Normal"
SLANT "R"
SPACING "P"
WEIGHT_NAME "Medium"
ENDPROPERTIES
CHARS 127
STARTCHAR char1
ENCODING 1
SWIDTH 1500 0
DWIDTH 6 0
BBX 6 12 0 -4
BITMAP
F8
F8
00
00
70
08
78
88
78
00
00
00
ENDCHAR
STARTCHAR char2
ENCODING 2
SWIDTH 1500 0
DWIDTH 6 0
BBX 6 12 0 -4
BITMAP
F8
F8
80
80
F0
88
88
88
F0
00
00
00
ENDCHAR
STARTCHAR char3
ENCODING 3
SWIDTH 1500 0
DWIDTH 6 0
BBX 6 12 0 -4
BITMAP
F8
F8
00
00
70
88
80
80
78
00
00
00
ENDCHAR
STARTCHAR char4
ENCODING 4
SWIDTH 1500 0
DWIDTH 6 0
BBX 6 12 0 -4
BITMAP
F8
F8
08
08
78
88
88
88
78
00
00
00
ENDCHAR
STARTCHAR char5
ENCODING 5
SWIDTH 1500 0
DWIDTH 6 0
BBX 6 12 0 -4
BITMAP
F8
F8
00
00
70
88
F0
80
70
00
00
00
ENDCHAR
STARTCHAR char6
ENCODING 6
SWIDTH 1500 0
DWIDTH 6 0
BBX 6 12 0 -4
BITMAP
F8
F8
30
48
40
E0
40
40
40
00
00
00
ENDCHAR
STARTCHAR char7
ENCODING 7
SWIDTH 1500 0
DWIDTH 6 0
BBX 6 12 0 -4
BITMAP
F8
F8
00
70
88
88
88
78
08
70
00
00
ENDCHAR
STARTCHAR char8
ENCODING 8
SWIDTH 1500 0
DWIDTH 6 0
BBX 6 12 0 -4
BITMAP
F8
F8
80
80
F0
88
88
88
88
00
00
00
ENDCHAR
STARTCHAR char9
ENCODING 9
SWIDTH 1500 0
DWIDTH 6 0
BBX 6 12 0 -4
BITMAP
F8
F8
00
20
00
20
20
20
20
00
00
00
ENDCHAR
STARTCHAR char10
ENCODING 10
SWIDTH 1500 0
DWIDTH 6 0
BBX 6 12 0 -4
BITMAP
F8
F8
00
00
08
08
08
08
88
70
00
00
ENDCHAR
STARTCHAR char11
ENCODING 11
SWIDTH 1500 0
DWIDTH 6 0
BBX 6 12 0 -4
BITMAP
F8
F8
80
80
88
90
E0
90
88
00
00
00
ENDCHAR
STARTCHAR char12
ENCODING 12
SWIDTH 1500 0
DWIDTH 6 0
BBX 6 12 0 -4
BITMAP
F8
F8
20
20
20
20
20
20
20
00
00
00
ENDCHAR
STARTCHAR char13
ENCODING 13
SWIDTH 1500 0
DWIDTH 6 0
BBX 6 12 0 -4
BITMAP
F8
F8
00
00
D0
A8
A8
A8
A8
00
00
00
ENDCHAR
STARTCHAR char14
ENCODING 14
SWIDTH 1500 0
DWIDTH 6 0
BBX 6 12 0 -4
BITMAP
F8
F8
00
00
B0
C8
88
88
88
00
00
00
ENDCHAR
STARTCHAR char15
ENCODING 15
SWIDTH 1500 0
DWIDTH 6 0
BBX 6 12 0 -4
BITMAP
F8
F8
00
00
70
88
88
88
70
00
00
00
ENDCHAR
STARTCHAR char16
ENCODING 16
SWIDTH 1500 0
DWIDTH 6 0
BBX 6 12 0 -4
BITMAP
F8
F8
00
F0
88
88
88
F0
80
80
00
00
ENDCHAR
STARTCHAR char17
ENCODING 17
SWIDTH 1500 0
DWIDTH 6 0
BBX 6 12 0 -4
BITMAP
F8
F8
00
70
88
88
88
78
08
08
00
00
ENDCHAR
STARTCHAR char18
ENCODING 18
SWIDTH 1500 0
DWIDTH 6 0
BBX 6 12 0 -4
BITMAP
F8
F8
00
00
B0
C8
80
80
80
00
00
00
ENDCHAR
STARTCHAR char19
ENCODING 19
SWIDTH 1500 0
DWIDTH 6 0
BBX 6 12 0 -4
BITMAP
F8
F8
00
00
78
80
70
08
F0
00
00
00
ENDCHAR
STARTCHAR char20
ENCODING 20
SWIDTH 1500 0
DWIDTH 6 0
BBX 6 12 0 -4
BITMAP
F8
F8
20
20
F8
20
20
20
18
00
00
00
ENDCHAR
STARTCHAR char21
ENCODING 21
SWIDTH 1500 0
DWIDTH 6 0
BBX 6 12 0 -4
BITMAP
F8
F8
00
00
88
88
88
88
70
00
00
00
ENDCHAR
STARTCHAR char22
ENCODING 22
SWIDTH 1500 0
DWIDTH 6 0
BBX 6 12 0 -4
BITMAP
F8
F8
00
00
88
88
88
50
20
00
00
00
ENDCHAR
STARTCHAR char23
ENCODING 23
SWIDTH 1500 0
DWIDTH 6 0
BBX 6 12 0 -4
BITMAP
F8
F8
00
00
88
88
A8
A8
50
00
00
00
ENDCHAR
STARTCHAR char24
ENCODING 24
SWIDTH 1500 0
DWIDTH 6 0
BBX 6 12 0 -4
BITMAP
F8
F8
00
00
88
50
20
50
88
00
00
00
ENDCHAR
STARTCHAR char25
ENCODING 25
SWIDTH 1500 0
DWIDTH 6 0
BBX 6 12 0 -4
BITMAP
F8
F8
00
00
88
88
88
50
20
40
00
00
ENDCHAR
STARTCHAR char26
ENCODING 26
SWIDTH 1500 0
DWIDTH 6 0
BBX 6 12 0 -4
BITMAP
F8
F8
00
00
F8
10
70
40
F8
00
00
00
ENDCHAR
STARTCHAR char27
ENCODING 27
SWIDTH 1500 0
DWIDTH 6 0
BBX 6 12 0 -4
BITMAP
00
20
20
50
88
50
20
20
00
00
00
00
ENDCHAR
STARTCHAR char28
ENCODING 28
SWIDTH 1500 0
DWIDTH 6 0
BBX 6 12 0 -4
BITMAP
F8
F8
00
80
40
20
10
08
00
00
00
00
ENDCHAR
STARTCHAR char29
ENCODING 29
SWIDTH 1500 0
DWIDTH 6 0
BBX 6 12 0 -4
BITMAP
F8
F8
00
E0
20
20
20
20
E0
00
00
00
ENDCHAR
STARTCHAR char30
ENCODING 30
SWIDTH 1500 0
DWIDTH 6 0
BBX 6 12 0 -4
BITMAP
F8
F8
00
20
50
88
00
00
00
00
00
00
ENDCHAR
STARTCHAR char31
ENCODING 31
SWIDTH 1500 0
DWIDTH 6 0
BBX 6 12 0 -4
BITMAP
F8
F8
00
00
00
00
00
00
00
F8
00
00
ENDCHAR
STARTCHAR char32
ENCODING 32
SWIDTH 1500 0
DWIDTH 6 0
BBX 6 12 0 -4
BITMAP
00
00
00
00
00
00
00
00
00
00
00
00
ENDCHAR
STARTCHAR char33
ENCODING 33
SWIDTH 1500 0
DWIDTH 6 0
BBX 6 12 0 -4
BITMAP
00
20
20
20
20
20
00
20
00
00
00
00
ENDCHAR
STARTCHAR char34
ENCODING 34
SWIDTH 1500 0
DWIDTH 6 0
BBX 6 12 0 -4
BITMAP
50
50
50
00
00
00
00
00
00
00
00
00
ENDCHAR
STARTCHAR char35
ENCODING 35
SWIDTH 1500 0
DWIDTH 6 0
BBX 6 12 0 -4
BITMAP
00
00
50
F8
50
50
F8
50
00
00
00
00
ENDCHAR
STARTCHAR char36
ENCODING 36
SWIDTH 1500 0
DWIDTH 6 0
BBX 6 12 0 -4
BITMAP
20
70
A8
A0
70
28
A8
70
20
00
00
00
ENDCHAR
STARTCHAR char37
ENCODING 37
SWIDTH 1500 0
DWIDTH 6 0
BBX 6 12 0 -4
BITMAP
00
F8
C8
10
20
40
98
98
00
00
00
00
ENDCHAR
STARTCHAR char38
ENCODING 38
SWIDTH 1500 0
DWIDTH 6 0
BBX 6 12 0 -4
BITMAP
00
40
A0
A0
40
A8
90
68
00
00
00
00
ENDCHAR
STARTCHAR char39
ENCODING 39
SWIDTH 1500 0
DWIDTH 6 0
BBX 6 12 0 -4
BITMAP
60
60
C0
00
00
00
00
00
00
00
00
00
ENDCHAR
STARTCHAR char40
ENCODING 40
SWIDTH 1500 0
DWIDTH 6 0
BBX 6 12 0 -4
BITMAP
00
08
10
20
20
20
10
08
00
00
00
00
ENDCHAR
STARTCHAR char41
ENCODING 41
SWIDTH 1500 0
DWIDTH 6 0
BBX 6 12 0 -4
BITMAP
00
80
40
20
20
20
40
80
00
00
00
00
ENDCHAR
STARTCHAR char42
ENCODING 42
SWIDTH 1500 0
DWIDTH 6 0
BBX 6 12 0 -4
BITMAP
00
20
A8
70
20
70
A8
20
00
00
00
00
ENDCHAR
STARTCHAR char43
ENCODING 43
SWIDTH 1500 0
DWIDTH 6 0
BBX 6 12 0 -4
BITMAP
00
00
20
20
F8
20
20
00
00
00
00
00
ENDCHAR
STARTCHAR char44
ENCODING 44
SWIDTH 1500 0
DWIDTH 6 0
BBX 6 12 0 -4
BITMAP
00
00
00
00
00
00
60
60
C0
00
00
00
ENDCHAR
STARTCHAR char45
ENCODING 45
SWIDTH 1500 0
DWIDTH 6 0
BBX 6 12 0 -4
BITMAP
00
00
00
00
F8
00
00
00
00
00
00
00
ENDCHAR
STARTCHAR char46
ENCODING 46
SWIDTH 1500 0
DWIDTH 6 0
BBX 6 12 0 -4
BITMAP
00
00
00
00
00
00
60
60
00
00
00
00
ENDCHAR
STARTCHAR char47
ENCODING 47
SWIDTH 1500 0
DWIDTH 6 0
BBX 6 12 0 -4
BITMAP
00
00
08
10
20
40
80
00
00
00
00
00
ENDCHAR
STARTCHAR char48
ENCODING 48
SWIDTH 1500 0
DWIDTH 6 0
BBX 6 12 0 -4
BITMAP
00
70
88
98
A8
C8
88
70
00
00
00
00
ENDCHAR
STARTCHAR char49
ENCODING 49
SWIDTH 1500 0
DWIDTH 6 0
BBX 6 12 0 -4
BITMAP
00
20
60
20
20
20
20
70
00
00
00
00
ENDCHAR
STARTCHAR char50
ENCODING 50
SWIDTH 1500 0
DWIDTH 6 0
BBX 6 12 0 -4
BITMAP
00
70
88
08
10
20
40
F8
00
00
00
00
ENDCHAR
STARTCHAR char51
ENCODING 51
SWIDTH 1500 0
DWIDTH 6 0
BBX 6 12 0 -4
BITMAP
00
70
88
08
30
08
88
70
00
00
00
00
ENDCHAR
STARTCHAR char52
ENCODING 52
SWIDTH 1500 0
DWIDTH 6 0
BBX 6 12 0 -4
BITMAP
00
10
30
50
90
F8
10
10
00
00
00
00
ENDCHAR
STARTCHAR char53
ENCODING 53
SWIDTH 1500 0
DWIDTH 6 0
BBX 6 12 0 -4
BITMAP
00
F8
80
F0
08
08
88
70
00
00
00
00
ENDCHAR
STARTCHAR char54
ENCODING 54
SWIDTH 1500 0
DWIDTH 6 0
BBX 6 12 0 -4
BITMAP
00
30
40
80
F0
88
88
70
00
00
00
00
ENDCHAR
STARTCHAR char55
ENCODING 55
SWIDTH 1500 0
DWIDTH 6 0
BBX 6 12 0 -4
BITMAP
00
F8
08
10
10
20
20
20
00
00
00
00
ENDCHAR
STARTCHAR char56
ENCODING 56
SWIDTH 1500 0
DWIDTH 6 0
BBX 6 12 0 -4
BITMAP
00
70
88
88
70
88
88
70
00
00
00
00
ENDCHAR
STARTCHAR char57
ENCODING 57
SWIDTH 1500 0
DWIDTH 6 0
BBX 6 12 0 -4
BITMAP
00
70
88
88
78
08
10
60
00
00
00
00
ENDCHAR
STARTCHAR char58
ENCODING 58
SWIDTH 1500 0
DWIDTH 6 0
BBX 6 12 0 -4
BITMAP
00
00
00
60
60
00
60
60
00
00
00
00
ENDCHAR
STARTCHAR char59
ENCODING 59
SWIDTH 1500 0
DWIDTH 6 0
BBX 6 12 0 -4
BITMAP
00
00
00
60
60
00
60
60
C0
00
00
00
ENDCHAR
STARTCHAR char60
ENCODING 60
SWIDTH 1500 0
DWIDTH 6 0
BBX 6 12 0 -4
BITMAP
00
00
10
20
40
20
10
00
00
00
00
00
ENDCHAR
STARTCHAR char61
ENCODING 61
SWIDTH 1500 0
DWIDTH 6 0
BBX 6 12 0 -4
BITMAP
00
00
00
F8
00
F8
00
00
00
00
00
00
ENDCHAR
STARTCHAR char62
ENCODING 62
SWIDTH 1500 0
DWIDTH 6 0
BBX 6 12 0 -4
BITMAP
00
00
40
20
10
20
40
00
00
00
00
00
ENDCHAR
STARTCHAR char63
ENCODING 63
SWIDTH 1500 0
DWIDTH 6 0
BBX 6 12 0 -4
BITMAP
00
70
88
10
20
20
00
20
00
00
00
00
ENDCHAR
STARTCHAR char64
ENCODING 64
SWIDTH 1500 0
DWIDTH 6 0
BBX 6 12 0 -4
BITMAP
00
70
88
B8
A8
B8
80
70
00
00
00
00
ENDCHAR
STARTCHAR char65
ENCODING 65
SWIDTH 1500 0
DWIDTH 6 0
BBX 6 12 0 -4
BITMAP
00
70
88
88
F8
88
88
88
00
00
00
00
ENDCHAR
STARTCHAR char66
ENCODING 66
SWIDTH 1500 0
DWIDTH 6 0
BBX 6 12 0 -4
BITMAP
00
F0
88
88
F0
88
88
F0
00
00
00
00
ENDCHAR
STARTCHAR char67
ENCODING 67
SWIDTH 1500 0
DWIDTH 6 0
BBX 6 12 0 -4
BITMAP
00
70
88
80
80
80
88
70
00
00
00
00
ENDCHAR
STARTCHAR char68
ENCODING 68
SWIDTH 1500 0
DWIDTH 6 0
BBX 6 12 0 -4
BITMAP
00
F0
48
48
48
48
48
F0
00
00
00
00
ENDCHAR
STARTCHAR char69
ENCODING 69
SWIDTH 1500 0
DWIDTH 6 0
BBX 6 12 0 -4
BITMAP
00
F8
80
80
F0
80
80
F8
00
00
00
00
ENDCHAR
STARTCHAR char70
ENCODING 70
SWIDTH 1500 0
DWIDTH 6 0
BBX 6 12 0 -4
BITMAP
00
F8
80
80
F0
80
80
80
00
00
00
00
ENDCHAR
STARTCHAR char71
ENCODING 71
SWIDTH 1500 0
DWIDTH 6 0
BBX 6 12 0 -4
BITMAP
00
70
88
80
80
98
88
70
00
00
00
00
ENDCHAR
STARTCHAR char72
ENCODING 72
SWIDTH 1500 0
DWIDTH 6 0
BBX 6 12 0 -4
BITMAP
00
88
88
88
F8
88
88
88
00
00
00
00
ENDCHAR
STARTCHAR char73
ENCODING 73
SWIDTH 1500 0
DWIDTH 6 0
BBX 6 12 0 -4
BITMAP
00
70
20
20
20
20
20
70
00
00
00
00
ENDCHAR
STARTCHAR char74
ENCODING 74
SWIDTH 1500 0
DWIDTH 6 0
BBX 6 12 0 -4
BITMAP
00
08
08
08
08
08
88
70
00
00
00
00
ENDCHAR
STARTCHAR char75
ENCODING 75
SWIDTH 1500 0
DWIDTH 6 0
BBX 6 12 0 -4
BITMAP
00
88
90
A0
C0
A0
90
88
00
00
00
00
ENDCHAR
STARTCHAR char76
ENCODING 76
SWIDTH 1500 0
DWIDTH 6 0
BBX 6 12 0 -4
BITMAP
00
80
80
80
80
80
80
F8
00
00
00
00
ENDCHAR
STARTCHAR char77
ENCODING 77
SWIDTH 1500 0
DWIDTH 6 0
BBX 6 12 0 -4
BITMAP
00
88
D8
A8
88
88
88
88
00
00
00
00
ENDCHAR
STARTCHAR char78
ENCODING 78
SWIDTH 1500 0
DWIDTH 6 0
BBX 6 12 0 -4
BITMAP
00
88
88
C8
A8
98
88
88
00
00
00
00
ENDCHAR
STARTCHAR char79
ENCODING 79
SWIDTH 1500 0
DWIDTH 6 0
BBX 6 12 0 -4
BITMAP
00
70
88
88
88
88
88
70
00
00
00
00
ENDCHAR
STARTCHAR char80
ENCODING 80
SWIDTH 1500 0
DWIDTH 6 0
BBX 6 12 0 -4
BITMAP
00
F0
88
88
F0
80
80
80
00
00
00
00
ENDCHAR
STARTCHAR char81
ENCODING 81
SWIDTH 1500 0
DWIDTH 6 0
BBX 6 12 0 -4
BITMAP
00
70
88
88
88
A8
90
68
00
00
00
00
ENDCHAR
STARTCHAR char82
ENCODING 82
SWIDTH 1500 0
DWIDTH 6 0
BBX 6 12 0 -4
BITMAP
00
F0
88
88
F0
A0
90
88
00
00
00
00
ENDCHAR
STARTCHAR char83
ENCODING 83
SWIDTH 1500 0
DWIDTH 6 0
BBX 6 12 0 -4
BITMAP
00
70
88
80
70
08
88
70
00
00
00
00
ENDCHAR
STARTCHAR char84
ENCODING 84
SWIDTH 1500 0
DWIDTH 6 0
BBX 6 12 0 -4
BITMAP
00
F8
20
20
20
20
20
20
00
00
00
00
ENDCHAR
STARTCHAR char85
ENCODING 85
SWIDTH 1500 0
DWIDTH 6 0
BBX 6 12 0 -4
BITMAP
00
88
88
88
88
88
88
70
00
00
00
00
ENDCHAR
STARTCHAR char86
ENCODING 86
SWIDTH 1500 0
DWIDTH 6 0
BBX 6 12 0 -4
BITMAP
00
88
88
88
88
50
50
20
00
00
00
00
ENDCHAR
STARTCHAR char87
ENCODING 87
SWIDTH 1500 0
DWIDTH 6 0
BBX 6 12 0 -4
BITMAP
00
88
88
88
88
A8
D8
88
00
00
00
00
ENDCHAR
STARTCHAR char88
ENCODING 88
SWIDTH 1500 0
DWIDTH 6 0
BBX 6 12 0 -4
BITMAP
00
88
88
50
20
50
88
88
00
00
00
00
ENDCHAR
STARTCHAR char89
ENCODING 89
SWIDTH 1500 0
DWIDTH 6 0
BBX 6 12 0 -4
BITMAP
00
88
88
50
20
20
20
20
00
00
00
00
ENDCHAR
STARTCHAR char90
ENCODING 90
SWIDTH 1500 0
DWIDTH 6 0
BBX 6 12 0 -4
BITMAP
00
F8
08
10
F8
40
80
F8
00
00
00
00
ENDCHAR
STARTCHAR char91
ENCODING 91
SWIDTH 1500 0
DWIDTH 6 0
BBX 6 12 0 -4
BITMAP
38
20
20
20
20
20
20
20
38
00
00
00
ENDCHAR
STARTCHAR char92
ENCODING 92
SWIDTH 1500 0
DWIDTH 6 0
BBX 6 12 0 -4
BITMAP
00
00
80
40
20
10
08
00
00
00
00
00
ENDCHAR
STARTCHAR char93
ENCODING 93
SWIDTH 1500 0
DWIDTH 6 0
BBX 6 12 0 -4
BITMAP
E0
20
20
20
20
20
20
20
E0
00
00
00
ENDCHAR
STARTCHAR char94
ENCODING 94
SWIDTH 1500 0
DWIDTH 6 0
BBX 6 12 0 -4
BITMAP
20
50
88
00
00
00
00
00
00
00
00
00
ENDCHAR
STARTCHAR char95
ENCODING 95
SWIDTH 1500 0
DWIDTH 6 0
BBX 6 12 0 -4
BITMAP
00
00
00
00
00
00
00
00
00
F8
00
00
ENDCHAR
STARTCHAR char96
ENCODING 96
SWIDTH 1500 0
DWIDTH 6 0
BBX 6 12 0 -4
BITMAP
30
30
18
00
00
00
00
00
00
00
00
00
ENDCHAR
STARTCHAR char97
ENCODING 97
SWIDTH 1500 0
DWIDTH 6 0
BBX 6 12 0 -4
BITMAP
00
00
00
70
08
78
88
78
00
00
00
00
ENDCHAR
STARTCHAR char98
ENCODING 98
SWIDTH 1500 0
DWIDTH 6 0
BBX 6 12 0 -4
BITMAP
00
80
80
F0
88
88
88
F0
00
00
00
00
ENDCHAR
STARTCHAR char99
ENCODING 99
SWIDTH 1500 0
DWIDTH 6 0
BBX 6 12 0 -4
BITMAP
00
00
00
70
88
80
80
78
00
00
00
00
ENDCHAR
STARTCHAR char100
ENCODING 100
SWIDTH 1500 0
DWIDTH 6 0
BBX 6 12 0 -4
BITMAP
00
08
08
78
88
88
88
78
00
00
00
00
ENDCHAR
STARTCHAR char101
ENCODING 101
SWIDTH 1500 0
DWIDTH 6 0
BBX 6 12 0 -4
BITMAP
00
00
00
70
88
F0
80
70
00
00
00
00
ENDCHAR
STARTCHAR char102
ENCODING 102
SWIDTH 1500 0
DWIDTH 6 0
BBX 6 12 0 -4
BITMAP
00
30
48
40
E0
40
40
40
00
00
00
00
ENDCHAR
STARTCHAR char103
ENCODING 103
SWIDTH 1500 0
DWIDTH 6 0
BBX 6 12 0 -4
BITMAP
00
00
00
70
88
88
88
78
08
70
00
00
ENDCHAR
STARTCHAR char104
ENCODING 104
SWIDTH 1500 0
DWIDTH 6 0
BBX 6 12 0 -4
BITMAP
00
80
80
F0
88
88
88
88
00
00
00
00
ENDCHAR
STARTCHAR char105
ENCODING 105
SWIDTH 1500 0
DWIDTH 6 0
BBX 6 12 0 -4
BITMAP
00
00
20
00
20
20
20
20
00
00
00
00
ENDCHAR
STARTCHAR char106
ENCODING 106
SWIDTH 1500 0
DWIDTH 6 0
BBX 6 12 0 -4
BITMAP
00
00
08
00
08
08
08
08
88
70
00
00
ENDCHAR
STARTCHAR char107
ENCODING 107
SWIDTH 1500 0
DWIDTH 6 0
BBX 6 12 0 -4
BITMAP
00
80
80
88
90
E0
90
88
00
00
00
00
ENDCHAR
STARTCHAR char108
ENCODING 108
SWIDTH 1500 0
DWIDTH 6 0
BBX 6 12 0 -4
BITMAP
00
20
20
20
20
20
20
20
00
00
00
00
ENDCHAR
STARTCHAR char109
ENCODING 109
SWIDTH 1500 0
DWIDTH 6 0
BBX 6 12 0 -4
BITMAP
00
00
00
D0
A8
A8
A8
A8
00
00
00
00
ENDCHAR
STARTCHAR char110
ENCODING 110
SWIDTH 1500 0
DWIDTH 6 0
BBX 6 12 0 -4
BITMAP
00
00
00
B0
C8
88
88
88
00
00
00
00
ENDCHAR
STARTCHAR char111
ENCODING 111
SWIDTH 1500 0
DWIDTH 6 0
BBX 6 12 0 -4
BITMAP
00
00
00
70
88
88
88
70
00
00
00
00
ENDCHAR
STARTCHAR char112
ENCODING 112
SWIDTH 1500 0
DWIDTH 6 0
BBX 6 12 0 -4
BITMAP
00
00
00
F0
88
88
88
F0
80
80
00
00
ENDCHAR
STARTCHAR char113
ENCODING 113
SWIDTH 1500 0
DWIDTH 6 0
BBX 6 12 0 -4
BITMAP
00
00
00
70
88
88
88
78
08
08
00
00
ENDCHAR
STARTCHAR char114
ENCODING 114
SWIDTH 1500 0
DWIDTH 6 0
BBX 6 12 0 -4
BITMAP
00
00
00
B0
C8
80
80
80
00
00
00
00
ENDCHAR
STARTCHAR char115
ENCODING 115
SWIDTH 1500 0
DWIDTH 6 0
BBX 6 12 0 -4
BITMAP
00
00
00
78
80
70
08
F0
00
00
00
00
ENDCHAR
STARTCHAR char116
ENCODING 116
SWIDTH 1500 0
DWIDTH 6 0
BBX 6 12 0 -4
BITMAP
00
20
20
F8
20
20
20
18
00
00
00
00
ENDCHAR
STARTCHAR char117
ENCODING 117
SWIDTH 1500 0
DWIDTH 6 0
BBX 6 12 0 -4
BITMAP
00
00
00
88
88
88
88
70
00
00
00
00
ENDCHAR
STARTCHAR char118
ENCODING 118
SWIDTH 1500 0
DWIDTH 6 0
BBX 6 12 0 -4
BITMAP
00
00
00
88
88
88
50
20
00
00
00
00
ENDCHAR
STARTCHAR char119
ENCODING 119
SWIDTH 1500 0
DWIDTH 6 0
BBX 6 12 0 -4
BITMAP
00
00
00
88
88
A8
A8
50
00
00
00
00
ENDCHAR
STARTCHAR char120
ENCODING 120
SWIDTH 1500 0
DWIDTH 6 0
BBX 6 12 0 -4
BITMAP
00
00
00
88
50
20
50
88
00
00
00
00
ENDCHAR
STARTCHAR char121
ENCODING 121
SWIDTH 1500 0
DWIDTH 6 0
BBX 6 12 0 -4
BITMAP
00
00
00
88
88
88
50
20
40
80
00
00
ENDCHAR
STARTCHAR char122
ENCODING 122
SWIDTH 1500 0
DWIDTH 6 0
BBX 6 12 0 -4
BITMAP
00
00
00
F8
10
70
40
F8
00
00
00
00
ENDCHAR
STARTCHAR char123
ENCODING 123
SWIDTH 1500 0
DWIDTH 6 0
BBX 6 12 0 -4
BITMAP
08
10
10
10
20
10
10
10
08
00
00
00
ENDCHAR
STARTCHAR char124
ENCODING 124
SWIDTH 1500 0
DWIDTH 6 0
BBX 6 12 0 -4
BITMAP
20
20
20
20
20
20
20
20
20
20
00
00
ENDCHAR
STARTCHAR char125
ENCODING 125
SWIDTH 1500 0
DWIDTH 6 0
BBX 6 12 0 -4
BITMAP
80
40
40
40
20
40
40
40
80
00
00
00
ENDCHAR
STARTCHAR char126
ENCODING 126
SWIDTH 1500 0
DWIDTH 6 0
BBX 6 12 0 -4
BITMAP
68
B0
00
00
00
00
00
00
00
00
00
00
ENDCHAR
STARTCHAR char127
ENCODING 127
SWIDTH 1500 0
DWIDTH 6 0
BBX 6 12 0 -4
BITMAP
F8
F8
F8
F8
F8
F8
F8
F8
F8
00
00
00
ENDCHAR
ENDFONT
